<svg xmlns="http://www.w3.org/2000/svg" xmlns:xlink="http://www.w3.org/1999/xlink" id="Layer_1" x="0px" y="0px" viewBox="0 0 360.64 175.1" style="enable-background:new 0 0 360.64 175.1;" xml:space="preserve"><style type="text/css">	.st0{fill:#002537;}</style><g>	<path class="st0" d="M117.19,150.5c-6.84,10.8-18.69,16.2-35.56,16.2c-10.73,0-18.82-2.56-24.3-7.7  c-5.48-5.12-9.08-11.89-10.78-20.28c-1.71-8.39-2.56-18.96-2.56-31.71v-0.66H21.73c0.09,9.63,0.59,17.6,1.49,23.86  c1.01,7,2.78,12.96,5.31,17.89c2.52,4.93,6.16,9.62,10.89,14.04c9.25,8.63,22.62,12.95,40.1,12.95c9.64,0,18.33-2,26.06-6.01  c7.74-4,13.63-9.42,17.67-16.26c3.49-5.91,6-12.96,7.52-21.16c1.33-7.2,2.07-15.64,2.23-25.32h-5.57  C127.27,125.24,123.86,139.96,117.19,150.5z"></path>	<path class="st0" d="M43.98,27.98c0-5.99,0.48-10.34,1.46-13.06c0.97-2.72,2.76-4.58,5.37-5.59c2.61-1.01,6.78-1.64,12.53-1.86  V2.69C55.87,3.15,45.72,3.38,32.9,3.38c-13.6,0-23.78-0.23-30.55-0.69v4.78c5.76,0.23,9.93,0.85,12.53,1.86  c2.6,1.01,4.39,2.87,5.37,5.59c0.97,2.72,1.46,7.07,1.46,13.06v31.36h22.27V27.98z"></path>	<path class="st0" d="M133.04,30.43c0-6.14,0.48-10.77,1.46-13.87c0.97-3.11,2.8-5.34,5.48-6.7c2.69-1.37,6.78-2.16,12.3-2.39V2.69  c-5.21,0.46-12.59,0.69-22.15,0.69c-10.48,0-18.6-0.23-24.36-0.69v4.78c5.6,0.23,9.93,1.04,13,2.44c3.07,1.4,5.28,3.69,6.64,6.88  c1.37,3.18,2.05,7.74,2.05,13.64v28.9h5.59V30.43z"></path>	<path class="st0" d="M238.07,108.65c5.13,4.04,9.2,8.48,12.18,13.34c3,4.86,4.49,10.35,4.49,16.5c0,7.15-1.46,13.11-4.37,17.89  c-2.91,4.78-6.72,8.3-11.42,10.55c-4.7,2.25-9.78,3.38-15.22,3.38c-14.22,0-24.75-4.99-31.59-14.98  c-6.84-9.98-10.8-23.06-11.89-39.22h-5.48c0,29.45-0.31,48.53-0.93,57.23h5.47c0.47-3.65,1.09-6.31,1.87-7.98  c0.78-1.67,1.9-2.5,3.38-2.5c1.87,0,4.59,1.12,8.16,3.38c4.35,2.72,8.98,4.87,13.87,6.47c4.9,1.59,11.15,2.39,18.77,2.39  c9.48,0,18.05-1.71,25.7-5.14c7.66-3.42,13.74-8.52,18.25-15.33c4.5-6.8,6.76-15.1,6.76-24.88c0-8.08-1.75-15.18-5.25-21.28  c-0.41-0.72-0.84-1.42-1.28-2.12h-34.5C236.1,107.13,237.12,107.91,238.07,108.65z"></path>	<path class="st0" d="M200.76,53.15c-5.2-5.28-7.81-12.23-7.81-20.86c0-5.43,1.25-10.25,3.74-14.45c2.48-4.19,5.94-7.46,10.37-9.79  c4.44-2.33,9.44-3.5,15.04-3.5c8.4,0,15.41,2.15,21.05,6.46c5.63,4.31,9.9,9.93,12.82,16.84c2.92,6.92,4.69,14.46,5.31,22.62h5.48  c0-23.16,0.39-39.4,1.17-48.73h-5.48c-0.47,3.65-1.09,6.31-1.87,7.98c-0.78,1.67-1.91,2.5-3.38,2.5c-1.87,0-4.59-1.13-8.16-3.38  c-2.8-1.87-5.37-3.4-7.69-4.6c-2.34-1.2-5.27-2.21-8.81-3.03C229,0.41,224.78,0,219.89,0c-8.16,0-15.64,1.53-22.44,4.61  c-6.8,3.07-12.24,7.71-16.32,13.93c-4.08,6.22-6.13,13.83-6.13,22.86c0,6.67,1.17,12.65,3.46,17.95h29.09  C205.15,57.36,202.88,55.3,200.76,53.15z"></path>	<path class="st0" d="M339.25,27.98c0-5.99,0.48-10.34,1.46-13.06c0.97-2.72,2.76-4.58,5.37-5.59c2.61-1.01,6.78-1.64,12.53-1.86  V2.69c-7.3,0.46-17.41,0.69-30.31,0.69c-13.75,0-23.94-0.23-30.54-0.69v4.78c5.75,0.23,9.93,0.85,12.53,1.86  c2.6,1.01,4.39,2.87,5.36,5.59c0.98,2.72,1.47,7.07,1.47,13.06v31.36h22.15V27.98z"></path>	<path class="st0" d="M317.11,106.35v40.07c0,5.98-0.49,10.33-1.47,13.05c-0.97,2.72-2.75,4.58-5.36,5.59  c-2.6,1.01-6.78,1.63-12.53,1.87v4.78c6.69-0.47,16.87-0.7,30.54-0.7c12.9,0,23.01,0.24,30.31,0.7v-4.78  c-5.75-0.24-9.93-0.86-12.53-1.87c-2.6-1.01-4.39-2.87-5.37-5.59c-0.97-2.72-1.46-7.07-1.46-13.05v-40.07H317.11z"></path></g><path class="st0" d="M81.98,94.25c1.7,0,1.97-0.36,1.97-0.78c0-0.38-0.1-0.97-0.42-1.38c-0.38,0.32-1.16,0.35-2.45,0.35h-7.65 c-0.48,0-0.94,0-1.42,0.03V76c0-1.51-0.07-3.13-0.23-4.49c-1.25,0-2.59,0.16-3.13,0.32c0.26,1.85,0.32,3.04,0.32,4.65v16.18 c0,0.69,0.13,1.39,0.29,1.82c1.83-0.2,3.04-0.23,4.65-0.23H81.98z"></path><path class="st0" d="M113.74,92.37c0,1.71,0.59,2,1.26,2c0.61,0,1.59-0.13,2.29-0.46c-0.44-0.38-0.52-1.16-0.52-2.45V76 c0-1.51-0.06-3.13-0.22-4.49c-1.26,0-2.59,0.16-3.14,0.32c0.26,1.85,0.32,3.04,0.32,4.65V92.37z"></path><path class="st0" d="M154.63,92.37c0.68,1.65,1.25,2,1.97,2c0.71,0,1.36-0.06,1.94-0.38c0-0.39,0.25-1.33,0.7-2.52l6.33-16.31 c0.48-1.23,0.88-2.42,1.1-3.61c-1.06,0-1.84,0.03-2.55,0.12c-0.45,1.84-0.87,3.11-1.48,4.78l-5.49,14.59l-6-15.82 c-0.46-1.19-1.1-2.48-1.84-3.67c-1.39,0-2.58,0.16-3.17,0.32c0.94,1.81,1.56,2.99,2.2,4.61L154.63,92.37z"></path><path class="st0" d="M196.05,92.37c0,1.71,0.58,2,1.26,2c0.61,0,1.58-0.13,2.29-0.46c-0.45-0.38-0.51-1.16-0.51-2.45V76 c0-1.51-0.06-3.13-0.23-4.49c-1.26,0-2.58,0.16-3.14,0.32c0.26,1.85,0.33,3.04,0.33,4.65V92.37z"></path><path class="st0" d="M230.06,92.37c0,1.71,0.45,2,1.03,2c0.48,0,1.26-0.13,1.88-0.46c-0.32-0.38-0.35-1.16-0.35-2.45V76.72 l12.33,17.07c0.19,0.46,0.55,0.59,0.91,0.59c0.52,0,1.35-0.13,2-0.46c-0.45-0.38-0.52-1.16-0.52-2.45V76c0-1.51-0.07-3.1-0.19-4.45 c-1.07,0-2.14,0.16-2.59,0.28c0.19,1.85,0.22,3.04,0.22,4.65v12.24l-12.37-17.11v-0.06c-1.09,0-2.22,0.16-2.67,0.28 c0.25,1.85,0.32,3.04,0.32,4.65V92.37z"></path><path class="st0" d="M280.59,82.81c0-5.65,3.1-9.49,7.56-9.49c2.64,0,4.61,1.38,5.39,3.35c1.51,0,2.45-0.33,2.45-1.22 c0-1.49-2.77-3.98-7.72-3.98c-6.71,0-10.94,4.81-10.94,11.81c0,6.59,4.04,11.11,10.69,11.11c3.62,0,6.75-1.51,8.24-3.61v-3.85 c0-1.51-0.07-3.2-0.23-4.55h-3.26c-1.51,0-3.13,0.06-4.49,0.22c0,0.67,0.16,1.39,0.33,1.8c1.74-0.19,2.95-0.22,4.49-0.22 c0.1,1.13,0.13,2.1,0.13,3.23v3.9c-0.97,0.61-2.45,1.23-5,1.23C283.63,92.57,280.59,88.59,280.59,82.81z"></path></svg>